HIERARCHY
ROOT Hips
{
	OFFSET 0.000000 0.000000 0.000000 
	CHANNELS 6 Xposition Yposition Zposition Xrotation Yrotation Zrotation
	End Site
	{
		OFFSET	0.000000	5.0	0.000000
	}
}
MOTION
Frames: 10
Frame Time: 1.0
0.0 0.0 0.0 0.000000 0.000000 0.000000
10.0 0.0 0.0 0.000000 0.000000 0.000000
0.0 10.0 0.0 0.000000 0.000000 0.000000
0.0 0.0 10.0 0.000000 0.000000 0.000000
0.0 0.0 0.0 90.000000 0.000000 0.000000
0.0 0.0 0.0 -90.000000 0.000000 0.000000
0.0 0.0 0.0 0.000000 90.000000 0.000000
0.0 0.0 0.0  0.000000 -90.000000 0.000000
0.0 0.0 0.0 0.000000 0.000000 90.000000
0.0 0.0 0.0  0.000000 0.000000 -90.000000
